solid ADJUSTER_BASE
  facet normal 0.000000e+00 0.000000e+00 -1.000000e+00
    outer loop
      vertex 7.500000e+00 -1.000000e+01 -5.000000e+00
      vertex 4.698537e+00 -1.709797e+00 -5.000000e+00
      vertex 5.000000e+00 -6.123234e-16 -5.000000e+00
    endloop
  endfacet
  facet normal -9.848098e-01 1.736366e-01 0.000000e+00
    outer loop
      vertex 5.000000e+00 -6.123234e-16 5.000000e+00
      vertex 5.000000e+00 -6.123234e-16 -5.000000e+00
      vertex 4.698537e+00 -1.709797e+00 -5.000000e+00
    endloop
  endfacet
  facet normal 0.000000e+00 0.000000e+00 -1.000000e+00
    outer loop
      vertex 7.500000e+00 0.000000e+00 -5.000000e+00
      vertex 5.000000e+00 -6.123234e-16 -5.000000e+00
      vertex 4.698537e+00 1.709797e+00 -5.000000e+00
    endloop
  endfacet
  facet normal -9.848098e-01 -1.736366e-01 0.000000e+00
    outer loop
      vertex 4.698537e+00 1.709797e+00 5.000000e+00
      vertex 4.698537e+00 1.709797e+00 -5.000000e+00
      vertex 5.000000e+00 -6.123234e-16 -5.000000e+00
    endloop
  endfacet
  facet normal 0.000000e+00 0.000000e+00 -1.000000e+00
    outer loop
      vertex 7.500000e+00 0.000000e+00 -5.000000e+00
      vertex 7.500000e+00 -1.000000e+01 -5.000000e+00
      vertex 5.000000e+00 -6.123234e-16 -5.000000e+00
    endloop
  endfacet
  facet normal -9.848098e-01 -1.736366e-01 0.000000e+00
    outer loop
      vertex 4.698537e+00 1.709797e+00 5.000000e+00
      vertex 5.000000e+00 -6.123234e-16 -5.000000e+00
      vertex 5.000000e+00 -6.123234e-16 5.000000e+00
    endloop
  endfacet
  facet normal 0.000000e+00 0.000000e+00 -1.000000e+00
    outer loop
      vertex 7.500000e+00 -1.000000e+01 -5.000000e+00
      vertex 3.830226e+00 -3.213825e+00 -5.000000e+00
      vertex 4.698537e+00 -1.709797e+00 -5.000000e+00
    endloop
  endfacet
  facet normal -8.660353e-01 4.999828e-01 0.000000e+00
    outer loop
      vertex 4.698537e+00 -1.709797e+00 5.000000e+00
      vertex 4.698537e+00 -1.709797e+00 -5.000000e+00
      vertex 3.830226e+00 -3.213825e+00 -5.000000e+00
    endloop
  endfacet
  facet normal -9.848098e-01 1.736366e-01 0.000000e+00
    outer loop
      vertex 4.698537e+00 -1.709797e+00 5.000000e+00
      vertex 5.000000e+00 -6.123234e-16 5.000000e+00
      vertex 4.698537e+00 -1.709797e+00 -5.000000e+00
    endloop
  endfacet
  facet normal 0.000000e+00 0.000000e+00 -1.000000e+00
    outer loop
      vertex 7.500000e+00 -1.000000e+01 -5.000000e+00
      vertex 2.499764e+00 -4.330198e+00 -5.000000e+00
      vertex 3.830226e+00 -3.213825e+00 -5.000000e+00
    endloop
  endfacet
  facet normal -6.427818e-01 7.660493e-01 0.000000e+00
    outer loop
      vertex 3.830226e+00 -3.213825e+00 5.000000e+00
      vertex 3.830226e+00 -3.213825e+00 -5.000000e+00
      vertex 2.499764e+00 -4.330198e+00 -5.000000e+00
    endloop
  endfacet
  facet normal -8.660353e-01 4.999828e-01 0.000000e+00
    outer loop
      vertex 4.698537e+00 -1.709797e+00 5.000000e+00
      vertex 3.830226e+00 -3.213825e+00 -5.000000e+00
      vertex 3.830226e+00 -3.213825e+00 5.000000e+00
    endloop
  endfacet
  facet normal 0.000000e+00 0.000000e+00 -1.000000e+00
    outer loop
      vertex 7.500000e+00 -1.000000e+01 -5.000000e+00
      vertex 8.679946e-01 -4.924071e+00 -5.000000e+00
      vertex 2.499764e+00 -4.330198e+00 -5.000000e+00
    endloop
  endfacet
  facet normal -3.419984e-01 9.397006e-01 0.000000e+00
    outer loop
      vertex 2.499764e+00 -4.330198e+00 5.000000e+00
      vertex 2.499764e+00 -4.330198e+00 -5.000000e+00
      vertex 8.679946e-01 -4.924071e+00 -5.000000e+00
    endloop
  endfacet
  facet normal -6.427818e-01 7.660493e-01 0.000000e+00
    outer loop
      vertex 3.830226e+00 -3.213825e+00 5.000000e+00
      vertex 2.499764e+00 -4.330198e+00 -5.000000e+00
      vertex 2.499764e+00 -4.330198e+00 5.000000e+00
    endloop
  endfacet
  facet normal 0.000000e+00 0.000000e+00 -1.000000e+00
    outer loop
      vertex 7.500000e+00 -1.000000e+01 -5.000000e+00
      vertex -8.679946e-01 -4.924071e+00 -5.000000e+00
      vertex 8.679946e-01 -4.924071e+00 -5.000000e+00
    endloop
  endfacet
  facet normal 5.116267e-16 1.000000e+00 0.000000e+00
    outer loop
      vertex 8.679946e-01 -4.924071e+00 5.000000e+00
      vertex 8.679946e-01 -4.924071e+00 -5.000000e+00
      vertex -8.679946e-01 -4.924071e+00 -5.000000e+00
    endloop
  endfacet
  facet normal -3.419984e-01 9.397006e-01 0.000000e+00
    outer loop
      vertex 2.499764e+00 -4.330198e+00 5.000000e+00
      vertex 8.679946e-01 -4.924071e+00 -5.000000e+00
      vertex 8.679946e-01 -4.924071e+00 5.000000e+00
    endloop
  endfacet
  facet normal 0.000000e+00 0.000000e+00 -1.000000e+00
    outer loop
      vertex 7.500000e+00 -1.000000e+01 -5.000000e+00
      vertex -2.499764e+00 -4.330198e+00 -5.000000e+00
      vertex -8.679946e-01 -4.924071e+00 -5.000000e+00
    endloop
  endfacet
  facet normal 3.419984e-01 9.397006e-01 0.000000e+00
    outer loop
      vertex -8.679946e-01 -4.924071e+00 5.000000e+00
      vertex -8.679946e-01 -4.924071e+00 -5.000000e+00
      vertex -2.499764e+00 -4.330198e+00 -5.000000e+00
    endloop
  endfacet
  facet normal 5.116267e-16 1.000000e+00 0.000000e+00
    outer loop
      vertex 8.679946e-01 -4.924071e+00 5.000000e+00
      vertex -8.679946e-01 -4.924071e+00 -5.000000e+00
      vertex -8.679946e-01 -4.924071e+00 5.000000e+00
    endloop
  endfacet
  facet normal 0.000000e+00 0.000000e+00 -1.000000e+00
    outer loop
      vertex -7.500000e+00 -1.000000e+01 -5.000000e+00
      vertex -3.830226e+00 -3.213825e+00 -5.000000e+00
      vertex -2.499764e+00 -4.330198e+00 -5.000000e+00
    endloop
  endfacet
  facet normal 6.427818e-01 7.660493e-01 0.000000e+00
    outer loop
      vertex -2.499764e+00 -4.330198e+00 5.000000e+00
      vertex -2.499764e+00 -4.330198e+00 -5.000000e+00
      vertex -3.830226e+00 -3.213825e+00 -5.000000e+00
    endloop
  endfacet
  facet normal 0.000000e+00 0.000000e+00 -1.000000e+00
    outer loop
      vertex 7.500000e+00 -1.000000e+01 -5.000000e+00
      vertex -7.500000e+00 -1.000000e+01 -5.000000e+00
      vertex -2.499764e+00 -4.330198e+00 -5.000000e+00
    endloop
  endfacet
  facet normal 3.419984e-01 9.397006e-01 0.000000e+00
    outer loop
      vertex -8.679946e-01 -4.924071e+00 5.000000e+00
      vertex -2.499764e+00 -4.330198e+00 -5.000000e+00
      vertex -2.499764e+00 -4.330198e+00 5.000000e+00
    endloop
  endfacet
  facet normal 0.000000e+00 0.000000e+00 -1.000000e+00
    outer loop
      vertex -7.500000e+00 9.184851e-16 -5.000000e+00
      vertex -4.698537e+00 -1.709797e+00 -5.000000e+00
      vertex -3.830226e+00 -3.213825e+00 -5.000000e+00
    endloop
  endfacet
  facet normal 8.660353e-01 4.999828e-01 0.000000e+00
    outer loop
      vertex -3.830226e+00 -3.213825e+00 5.000000e+00
      vertex -3.830226e+00 -3.213825e+00 -5.000000e+00
      vertex -4.698537e+00 -1.709797e+00 -5.000000e+00
    endloop
  endfacet
  facet normal 0.000000e+00 0.000000e+00 -1.000000e+00
    outer loop
      vertex -7.500000e+00 -1.000000e+01 -5.000000e+00
      vertex -7.500000e+00 9.184851e-16 -5.000000e+00
      vertex -3.830226e+00 -3.213825e+00 -5.000000e+00
    endloop
  endfacet
  facet normal 6.427818e-01 7.660493e-01 0.000000e+00
    outer loop
      vertex -2.499764e+00 -4.330198e+00 5.000000e+00
      vertex -3.830226e+00 -3.213825e+00 -5.000000e+00
      vertex -3.830226e+00 -3.213825e+00 5.000000e+00
    endloop
  endfacet
  facet normal 0.000000e+00 0.000000e+00 -1.000000e+00
    outer loop
      vertex -7.500000e+00 9.184851e-16 -5.000000e+00
      vertex -5.000000e+00 6.123234e-16 -5.000000e+00
      vertex -4.698537e+00 -1.709797e+00 -5.000000e+00
    endloop
  endfacet
  facet normal 9.848098e-01 1.736366e-01 0.000000e+00
    outer loop
      vertex -4.698537e+00 -1.709797e+00 5.000000e+00
      vertex -4.698537e+00 -1.709797e+00 -5.000000e+00
      vertex -5.000000e+00 6.123234e-16 -5.000000e+00
    endloop
  endfacet
  facet normal 8.660353e-01 4.999828e-01 0.000000e+00
    outer loop
      vertex -3.830226e+00 -3.213825e+00 5.000000e+00
      vertex -4.698537e+00 -1.709797e+00 -5.000000e+00
      vertex -4.698537e+00 -1.709797e+00 5.000000e+00
    endloop
  endfacet
  facet normal 0.000000e+00 0.000000e+00 -1.000000e+00
    outer loop
      vertex -7.196197e+00 2.112994e+00 -5.000000e+00
      vertex -4.698537e+00 1.709797e+00 -5.000000e+00
      vertex -5.000000e+00 6.123234e-16 -5.000000e+00
    endloop
  endfacet
  facet normal 9.848098e-01 -1.736366e-01 0.000000e+00
    outer loop
      vertex -5.000000e+00 6.123234e-16 5.000000e+00
      vertex -5.000000e+00 6.123234e-16 -5.000000e+00
      vertex -4.698537e+00 1.709797e+00 -5.000000e+00
    endloop
  endfacet
  facet normal 0.000000e+00 0.000000e+00 -1.000000e+00
    outer loop
      vertex -7.196197e+00 2.112994e+00 -5.000000e+00
      vertex -5.000000e+00 6.123234e-16 -5.000000e+00
      vertex -7.500000e+00 9.184851e-16 -5.000000e+00
    endloop
  endfacet
  facet normal 9.848098e-01 1.736366e-01 0.000000e+00
    outer loop
      vertex -4.698537e+00 -1.709797e+00 5.000000e+00
      vertex -5.000000e+00 6.123234e-16 -5.000000e+00
      vertex -5.000000e+00 6.123234e-16 5.000000e+00
    endloop
  endfacet
  facet normal 0.000000e+00 0.000000e+00 -1.000000e+00
    outer loop
      vertex -7.196197e+00 2.112994e+00 -5.000000e+00
      vertex -3.830226e+00 3.213825e+00 -5.000000e+00
      vertex -4.698537e+00 1.709797e+00 -5.000000e+00
    endloop
  endfacet
  facet normal 8.660353e-01 -4.999828e-01 0.000000e+00
    outer loop
      vertex -4.698537e+00 1.709797e+00 5.000000e+00
      vertex -4.698537e+00 1.709797e+00 -5.000000e+00
      vertex -3.830226e+00 3.213825e+00 -5.000000e+00
    endloop
  endfacet
  facet normal 9.848098e-01 -1.736366e-01 0.000000e+00
    outer loop
      vertex -5.000000e+00 6.123234e-16 5.000000e+00
      vertex -4.698537e+00 1.709797e+00 -5.000000e+00
      vertex -4.698537e+00 1.709797e+00 5.000000e+00
    endloop
  endfacet
  facet normal 0.000000e+00 0.000000e+00 -1.000000e+00
    outer loop
      vertex -6.309401e+00 4.054806e+00 -5.000000e+00
      vertex -2.499764e+00 4.330198e+00 -5.000000e+00
      vertex -3.830226e+00 3.213825e+00 -5.000000e+00
    endloop
  endfacet
  facet normal 6.427818e-01 -7.660493e-01 0.000000e+00
    outer loop
      vertex -3.830226e+00 3.213825e+00 5.000000e+00
      vertex -3.830226e+00 3.213825e+00 -5.000000e+00
      vertex -2.499764e+00 4.330198e+00 -5.000000e+00
    endloop
  endfacet
  facet normal 0.000000e+00 0.000000e+00 -1.000000e+00
    outer loop
      vertex -7.196197e+00 2.112994e+00 -5.000000e+00
      vertex -6.309401e+00 4.054806e+00 -5.000000e+00
      vertex -3.830226e+00 3.213825e+00 -5.000000e+00
    endloop
  endfacet
  facet normal 8.660353e-01 -4.999828e-01 0.000000e+00
    outer loop
      vertex -4.698537e+00 1.709797e+00 5.000000e+00
      vertex -3.830226e+00 3.213825e+00 -5.000000e+00
      vertex -3.830226e+00 3.213825e+00 5.000000e+00
    endloop
  endfacet
  facet normal 0.000000e+00 0.000000e+00 -1.000000e+00
    outer loop
      vertex -4.911456e+00 5.668122e+00 -5.000000e+00
      vertex -8.679946e-01 4.924071e+00 -5.000000e+00
      vertex -2.499764e+00 4.330198e+00 -5.000000e+00
    endloop
  endfacet
  facet normal 3.419984e-01 -9.397006e-01 0.000000e+00
    outer loop
      vertex -2.499764e+00 4.330198e+00 5.000000e+00
      vertex -2.499764e+00 4.330198e+00 -5.000000e+00
      vertex -8.679946e-01 4.924071e+00 -5.000000e+00
    endloop
  endfacet
  facet normal 0.000000e+00 0.000000e+00 -1.000000e+00
    outer loop
      vertex -6.309401e+00 4.054806e+00 -5.000000e+00
      vertex -4.911456e+00 5.668122e+00 -5.000000e+00
      vertex -2.499764e+00 4.330198e+00 -5.000000e+00
    endloop
  endfacet
  facet normal 6.427818e-01 -7.660493e-01 0.000000e+00
    outer loop
      vertex -3.830226e+00 3.213825e+00 5.000000e+00
      vertex -2.499764e+00 4.330198e+00 -5.000000e+00
      vertex -2.499764e+00 4.330198e+00 5.000000e+00
    endloop
  endfacet
  facet normal 0.000000e+00 0.000000e+00 -1.000000e+00
    outer loop
      vertex -4.911456e+00 5.668122e+00 -5.000000e+00
      vertex 8.679946e-01 4.924071e+00 -5.000000e+00
      vertex -8.679946e-01 4.924071e+00 -5.000000e+00
    endloop
  endfacet
  facet normal 5.116267e-16 -1.000000e+00 0.000000e+00
    outer loop
      vertex -8.679946e-01 4.924071e+00 5.000000e+00
      vertex -8.679946e-01 4.924071e+00 -5.000000e+00
      vertex 8.679946e-01 4.924071e+00 -5.000000e+00
    endloop
  endfacet
  facet normal 3.419984e-01 -9.397006e-01 0.000000e+00
    outer loop
      vertex -2.499764e+00 4.330198e+00 5.000000e+00
      vertex -8.679946e-01 4.924071e+00 -5.000000e+00
      vertex -8.679946e-01 4.924071e+00 5.000000e+00
    endloop
  endfacet
  facet normal 0.000000e+00 0.000000e+00 -1.000000e+00
    outer loop
      vertex 6.309401e+00 4.054806e+00 -5.000000e+00
      vertex 2.499764e+00 4.330198e+00 -5.000000e+00
      vertex 8.679946e-01 4.924071e+00 -5.000000e+00
    endloop
  endfacet
  facet normal -3.419984e-01 -9.397006e-01 0.000000e+00
    outer loop
      vertex 8.679946e-01 4.924071e+00 5.000000e+00
      vertex 8.679946e-01 4.924071e+00 -5.000000e+00
      vertex 2.499764e+00 4.330198e+00 -5.000000e+00
    endloop
  endfacet
  facet normal 0.000000e+00 0.000000e+00 -1.000000e+00
    outer loop
      vertex 4.911456e+00 5.668122e+00 -5.000000e+00
      vertex 6.309401e+00 4.054806e+00 -5.000000e+00
      vertex 8.679946e-01 4.924071e+00 -5.000000e+00
    endloop
  endfacet
  facet normal 0.000000e+00 0.000000e+00 -1.000000e+00
    outer loop
      vertex -4.911456e+00 5.668122e+00 -5.000000e+00
      vertex 4.911456e+00 5.668122e+00 -5.000000e+00
      vertex 8.679946e-01 4.924071e+00 -5.000000e+00
    endloop
  endfacet
  facet normal 5.116267e-16 -1.000000e+00 0.000000e+00
    outer loop
      vertex -8.679946e-01 4.924071e+00 5.000000e+00
      vertex 8.679946e-01 4.924071e+00 -5.000000e+00
      vertex 8.679946e-01 4.924071e+00 5.000000e+00
    endloop
  endfacet
  facet normal 0.000000e+00 0.000000e+00 -1.000000e+00
    outer loop
      vertex 6.309401e+00 4.054806e+00 -5.000000e+00
      vertex 3.830226e+00 3.213825e+00 -5.000000e+00
      vertex 2.499764e+00 4.330198e+00 -5.000000e+00
    endloop
  endfacet
  facet normal -6.427818e-01 -7.660493e-01 0.000000e+00
    outer loop
      vertex 2.499764e+00 4.330198e+00 5.000000e+00
      vertex 2.499764e+00 4.330198e+00 -5.000000e+00
      vertex 3.830226e+00 3.213825e+00 -5.000000e+00
    endloop
  endfacet
  facet normal -3.419984e-01 -9.397006e-01 0.000000e+00
    outer loop
      vertex 8.679946e-01 4.924071e+00 5.000000e+00
      vertex 2.499764e+00 4.330198e+00 -5.000000e+00
      vertex 2.499764e+00 4.330198e+00 5.000000e+00
    endloop
  endfacet
  facet normal 0.000000e+00 0.000000e+00 -1.000000e+00
    outer loop
      vertex 7.196197e+00 2.112994e+00 -5.000000e+00
      vertex 4.698537e+00 1.709797e+00 -5.000000e+00
      vertex 3.830226e+00 3.213825e+00 -5.000000e+00
    endloop
  endfacet
  facet normal -8.660353e-01 -4.999828e-01 0.000000e+00
    outer loop
      vertex 3.830226e+00 3.213825e+00 5.000000e+00
      vertex 3.830226e+00 3.213825e+00 -5.000000e+00
      vertex 4.698537e+00 1.709797e+00 -5.000000e+00
    endloop
  endfacet
  facet normal 0.000000e+00 0.000000e+00 -1.000000e+00
    outer loop
      vertex 6.309401e+00 4.054806e+00 -5.000000e+00
      vertex 7.196197e+00 2.112994e+00 -5.000000e+00
      vertex 3.830226e+00 3.213825e+00 -5.000000e+00
    endloop
  endfacet
  facet normal -6.427818e-01 -7.660493e-01 0.000000e+00
    outer loop
      vertex 2.499764e+00 4.330198e+00 5.000000e+00
      vertex 3.830226e+00 3.213825e+00 -5.000000e+00
      vertex 3.830226e+00 3.213825e+00 5.000000e+00
    endloop
  endfacet
  facet normal 0.000000e+00 0.000000e+00 -1.000000e+00
    outer loop
      vertex 7.196197e+00 2.112994e+00 -5.000000e+00
      vertex 7.500000e+00 0.000000e+00 -5.000000e+00
      vertex 4.698537e+00 1.709797e+00 -5.000000e+00
    endloop
  endfacet
  facet normal -8.660353e-01 -4.999828e-01 0.000000e+00
    outer loop
      vertex 3.830226e+00 3.213825e+00 5.000000e+00
      vertex 4.698537e+00 1.709797e+00 -5.000000e+00
      vertex 4.698537e+00 1.709797e+00 5.000000e+00
    endloop
  endfacet
  facet normal -1.000000e+00 0.000000e+00 0.000000e+00
    outer loop
      vertex -7.500000e+00 -1.000000e+01 5.000000e+00
      vertex -7.500000e+00 9.184851e-16 -5.000000e+00
      vertex -7.500000e+00 -1.000000e+01 -5.000000e+00
    endloop
  endfacet
  facet normal -9.898214e-01 1.423148e-01 0.000000e+00
    outer loop
      vertex -7.196197e+00 2.112994e+00 5.000000e+00
      vertex -7.196197e+00 2.112994e+00 -5.000000e+00
      vertex -7.500000e+00 9.184851e-16 -5.000000e+00
    endloop
  endfacet
  facet normal -9.898214e-01 1.423148e-01 0.000000e+00
    outer loop
      vertex -7.196197e+00 2.112994e+00 5.000000e+00
      vertex -7.500000e+00 9.184851e-16 -5.000000e+00
      vertex -7.500000e+00 9.184851e-16 5.000000e+00
    endloop
  endfacet
  facet normal -1.000000e+00 0.000000e+00 0.000000e+00
    outer loop
      vertex -7.500000e+00 -1.000000e+01 5.000000e+00
      vertex -7.500000e+00 9.184851e-16 5.000000e+00
      vertex -7.500000e+00 9.184851e-16 -5.000000e+00
    endloop
  endfacet
  facet normal 0.000000e+00 -1.000000e+00 0.000000e+00
    outer loop
      vertex -5.624819e+00 -1.000000e+01 -1.082569e+00
      vertex -7.500000e+00 -1.000000e+01 -5.000000e+00
      vertex 7.500000e+00 -1.000000e+01 -5.000000e+00
    endloop
  endfacet
  facet normal 0.000000e+00 -1.000000e+00 0.000000e+00
    outer loop
      vertex -6.250000e+00 -1.000000e+01 0.000000e+00
      vertex -7.500000e+00 -1.000000e+01 5.000000e+00
      vertex -7.500000e+00 -1.000000e+01 -5.000000e+00
    endloop
  endfacet
  facet normal 0.000000e+00 -1.000000e+00 0.000000e+00
    outer loop
      vertex -6.082569e+00 -1.000000e+01 -6.248191e-01
      vertex -6.250000e+00 -1.000000e+01 0.000000e+00
      vertex -7.500000e+00 -1.000000e+01 -5.000000e+00
    endloop
  endfacet
  facet normal 0.000000e+00 -1.000000e+00 0.000000e+00
    outer loop
      vertex -5.624819e+00 -1.000000e+01 -1.082569e+00
      vertex -6.082569e+00 -1.000000e+01 -6.248191e-01
      vertex -7.500000e+00 -1.000000e+01 -5.000000e+00
    endloop
  endfacet
  facet normal 1.000000e+00 -8.881784e-17 0.000000e+00
    outer loop
      vertex 7.500000e+00 0.000000e+00 5.000000e+00
      vertex 7.500000e+00 -1.000000e+01 -5.000000e+00
      vertex 7.500000e+00 0.000000e+00 -5.000000e+00
    endloop
  endfacet
  facet normal 1.000000e+00 -8.881784e-17 0.000000e+00
    outer loop
      vertex 7.500000e+00 -1.000000e+01 5.000000e+00
      vertex 7.500000e+00 -1.000000e+01 -5.000000e+00
      vertex 7.500000e+00 0.000000e+00 5.000000e+00
    endloop
  endfacet
  facet normal 0.000000e+00 -1.000000e+00 0.000000e+00
    outer loop
      vertex 6.250000e+00 -1.000000e+01 -8.881784e-16
      vertex 7.500000e+00 -1.000000e+01 -5.000000e+00
      vertex 7.500000e+00 -1.000000e+01 5.000000e+00
    endloop
  endfacet
  facet normal 0.000000e+00 -1.000000e+00 0.000000e+00
    outer loop
      vertex 5.624819e+00 -1.000000e+01 -1.082569e+00
      vertex 5.000000e+00 -1.000000e+01 -1.250000e+00
      vertex 7.500000e+00 -1.000000e+01 -5.000000e+00
    endloop
  endfacet
  facet normal 0.000000e+00 -1.000000e+00 0.000000e+00
    outer loop
      vertex 4.375181e+00 -1.000000e+01 -1.082569e+00
      vertex 7.500000e+00 -1.000000e+01 -5.000000e+00
      vertex 5.000000e+00 -1.000000e+01 -1.250000e+00
    endloop
  endfacet
  facet normal 0.000000e+00 -1.000000e+00 0.000000e+00
    outer loop
      vertex 6.082569e+00 -1.000000e+01 -6.248191e-01
      vertex 5.624819e+00 -1.000000e+01 -1.082569e+00
      vertex 7.500000e+00 -1.000000e+01 -5.000000e+00
    endloop
  endfacet
  facet normal 0.000000e+00 -1.000000e+00 0.000000e+00
    outer loop
      vertex 6.250000e+00 -1.000000e+01 -8.881784e-16
      vertex 6.082569e+00 -1.000000e+01 -6.248191e-01
      vertex 7.500000e+00 -1.000000e+01 -5.000000e+00
    endloop
  endfacet
  facet normal 0.000000e+00 -1.000000e+00 0.000000e+00
    outer loop
      vertex 4.375181e+00 -1.000000e+01 -1.082569e+00
      vertex 3.917431e+00 -1.000000e+01 -6.248191e-01
      vertex 7.500000e+00 -1.000000e+01 -5.000000e+00
    endloop
  endfacet
  facet normal 0.000000e+00 -1.000000e+00 0.000000e+00
    outer loop
      vertex -3.750000e+00 -1.000000e+01 0.000000e+00
      vertex 7.500000e+00 -1.000000e+01 -5.000000e+00
      vertex 3.917431e+00 -1.000000e+01 -6.248191e-01
    endloop
  endfacet
  facet normal 0.000000e+00 -1.000000e+00 0.000000e+00
    outer loop
      vertex -4.375181e+00 -1.000000e+01 -1.082569e+00
      vertex -5.000000e+00 -1.000000e+01 -1.250000e+00
      vertex 7.500000e+00 -1.000000e+01 -5.000000e+00
    endloop
  endfacet
  facet normal 0.000000e+00 -1.000000e+00 0.000000e+00
    outer loop
      vertex -5.624819e+00 -1.000000e+01 -1.082569e+00
      vertex 7.500000e+00 -1.000000e+01 -5.000000e+00
      vertex -5.000000e+00 -1.000000e+01 -1.250000e+00
    endloop
  endfacet
  facet normal 0.000000e+00 -1.000000e+00 0.000000e+00
    outer loop
      vertex -3.917431e+00 -1.000000e+01 -6.248191e-01
      vertex -4.375181e+00 -1.000000e+01 -1.082569e+00
      vertex 7.500000e+00 -1.000000e+01 -5.000000e+00
    endloop
  endfacet
  facet normal 0.000000e+00 -1.000000e+00 0.000000e+00
    outer loop
      vertex -3.750000e+00 -1.000000e+01 0.000000e+00
      vertex -3.917431e+00 -1.000000e+01 -6.248191e-01
      vertex 7.500000e+00 -1.000000e+01 -5.000000e+00
    endloop
  endfacet
  facet normal 9.898214e-01 1.423148e-01 0.000000e+00
    outer loop
      vertex 7.500000e+00 0.000000e+00 5.000000e+00
      vertex 7.500000e+00 0.000000e+00 -5.000000e+00
      vertex 7.196197e+00 2.112994e+00 -5.000000e+00
    endloop
  endfacet
  facet normal 9.096320e-01 4.154150e-01 0.000000e+00
    outer loop
      vertex 7.196197e+00 2.112994e+00 5.000000e+00
      vertex 7.196197e+00 2.112994e+00 -5.000000e+00
      vertex 6.309401e+00 4.054806e+00 -5.000000e+00
    endloop
  endfacet
  facet normal 9.898214e-01 1.423148e-01 0.000000e+00
    outer loop
      vertex 7.500000e+00 0.000000e+00 5.000000e+00
      vertex 7.196197e+00 2.112994e+00 -5.000000e+00
      vertex 7.196197e+00 2.112994e+00 5.000000e+00
    endloop
  endfacet
  facet normal 7.557496e-01 6.548607e-01 0.000000e+00
    outer loop
      vertex 6.309401e+00 4.054806e+00 5.000000e+00
      vertex 6.309401e+00 4.054806e+00 -5.000000e+00
      vertex 4.911456e+00 5.668122e+00 -5.000000e+00
    endloop
  endfacet
  facet normal 9.096320e-01 4.154150e-01 0.000000e+00
    outer loop
      vertex 7.196197e+00 2.112994e+00 5.000000e+00
      vertex 6.309401e+00 4.054806e+00 -5.000000e+00
      vertex 6.309401e+00 4.054806e+00 5.000000e+00
    endloop
  endfacet
  facet normal 0.000000e+00 0.000000e+00 -1.000000e+00
    outer loop
      vertex -3.115613e+00 6.822240e+00 -5.000000e+00
      vertex 3.115613e+00 6.822240e+00 -5.000000e+00
      vertex 4.911456e+00 5.668122e+00 -5.000000e+00
    endloop
  endfacet
  facet normal 5.406408e-01 8.412535e-01 0.000000e+00
    outer loop
      vertex 4.911456e+00 5.668122e+00 5.000000e+00
      vertex 4.911456e+00 5.668122e+00 -5.000000e+00
      vertex 3.115613e+00 6.822240e+00 -5.000000e+00
    endloop
  endfacet
  facet normal 0.000000e+00 0.000000e+00 -1.000000e+00
    outer loop
      vertex -4.911456e+00 5.668122e+00 -5.000000e+00
      vertex -3.115613e+00 6.822240e+00 -5.000000e+00
      vertex 4.911456e+00 5.668122e+00 -5.000000e+00
    endloop
  endfacet
  facet normal 7.557496e-01 6.548607e-01 0.000000e+00
    outer loop
      vertex 6.309401e+00 4.054806e+00 5.000000e+00
      vertex 4.911456e+00 5.668122e+00 -5.000000e+00
      vertex 4.911456e+00 5.668122e+00 5.000000e+00
    endloop
  endfacet
  facet normal 0.000000e+00 0.000000e+00 -1.000000e+00
    outer loop
      vertex -1.067361e+00 7.423661e+00 -5.000000e+00
      vertex 1.067361e+00 7.423661e+00 -5.000000e+00
      vertex 3.115613e+00 6.822240e+00 -5.000000e+00
    endloop
  endfacet
  facet normal 2.817326e-01 9.594930e-01 0.000000e+00
    outer loop
      vertex 3.115613e+00 6.822240e+00 5.000000e+00
      vertex 3.115613e+00 6.822240e+00 -5.000000e+00
      vertex 1.067361e+00 7.423661e+00 -5.000000e+00
    endloop
  endfacet
  facet normal 0.000000e+00 0.000000e+00 -1.000000e+00
    outer loop
      vertex -3.115613e+00 6.822240e+00 -5.000000e+00
      vertex -1.067361e+00 7.423661e+00 -5.000000e+00
      vertex 3.115613e+00 6.822240e+00 -5.000000e+00
    endloop
  endfacet
  facet normal 5.406408e-01 8.412535e-01 0.000000e+00
    outer loop
      vertex 4.911456e+00 5.668122e+00 5.000000e+00
      vertex 3.115613e+00 6.822240e+00 -5.000000e+00
      vertex 3.115613e+00 6.822240e+00 5.000000e+00
    endloop
  endfacet
  facet normal 4.160627e-16 1.000000e+00 0.000000e+00
    outer loop
      vertex 1.067361e+00 7.423661e+00 5.000000e+00
      vertex 1.067361e+00 7.423661e+00 -5.000000e+00
      vertex -1.067361e+00 7.423661e+00 -5.000000e+00
    endloop
  endfacet
  facet normal 2.817326e-01 9.594930e-01 0.000000e+00
    outer loop
      vertex 3.115613e+00 6.822240e+00 5.000000e+00
      vertex 1.067361e+00 7.423661e+00 -5.000000e+00
      vertex 1.067361e+00 7.423661e+00 5.000000e+00
    endloop
  endfacet
  facet normal -2.817326e-01 9.594930e-01 0.000000e+00
    outer loop
      vertex -1.067361e+00 7.423661e+00 5.000000e+00
      vertex -1.067361e+00 7.423661e+00 -5.000000e+00
      vertex -3.115613e+00 6.822240e+00 -5.000000e+00
    endloop
  endfacet
  facet normal 4.160627e-16 1.000000e+00 0.000000e+00
    outer loop
      vertex 1.067361e+00 7.423661e+00 5.000000e+00
      vertex -1.067361e+00 7.423661e+00 -5.000000e+00
      vertex -1.067361e+00 7.423661e+00 5.000000e+00
    endloop
  endfacet
  facet normal -5.406408e-01 8.412535e-01 0.000000e+00
    outer loop
      vertex -3.115613e+00 6.822240e+00 5.000000e+00
      vertex -3.115613e+00 6.822240e+00 -5.000000e+00
      vertex -4.911456e+00 5.668122e+00 -5.000000e+00
    endloop
  endfacet
  facet normal -2.817326e-01 9.594930e-01 0.000000e+00
    outer loop
      vertex -1.067361e+00 7.423661e+00 5.000000e+00
      vertex -3.115613e+00 6.822240e+00 -5.000000e+00
      vertex -3.115613e+00 6.822240e+00 5.000000e+00
    endloop
  endfacet
  facet normal -7.557496e-01 6.548607e-01 0.000000e+00
    outer loop
      vertex -4.911456e+00 5.668122e+00 5.000000e+00
      vertex -4.911456e+00 5.668122e+00 -5.000000e+00
      vertex -6.309401e+00 4.054806e+00 -5.000000e+00
    endloop
  endfacet
  facet normal -5.406408e-01 8.412535e-01 0.000000e+00
    outer loop
      vertex -3.115613e+00 6.822240e+00 5.000000e+00
      vertex -4.911456e+00 5.668122e+00 -5.000000e+00
      vertex -4.911456e+00 5.668122e+00 5.000000e+00
    endloop
  endfacet
  facet normal -9.096320e-01 4.154150e-01 0.000000e+00
    outer loop
      vertex -6.309401e+00 4.054806e+00 5.000000e+00
      vertex -6.309401e+00 4.054806e+00 -5.000000e+00
      vertex -7.196197e+00 2.112994e+00 -5.000000e+00
    endloop
  endfacet
  facet normal -7.557496e-01 6.548607e-01 0.000000e+00
    outer loop
      vertex -4.911456e+00 5.668122e+00 5.000000e+00
      vertex -6.309401e+00 4.054806e+00 -5.000000e+00
      vertex -6.309401e+00 4.054806e+00 5.000000e+00
    endloop
  endfacet
  facet normal -9.096320e-01 4.154150e-01 0.000000e+00
    outer loop
      vertex -6.309401e+00 4.054806e+00 5.000000e+00
      vertex -7.196197e+00 2.112994e+00 -5.000000e+00
      vertex -7.196197e+00 2.112994e+00 5.000000e+00
    endloop
  endfacet
  facet normal 0.000000e+00 0.000000e+00 1.000000e+00
    outer loop
      vertex 7.196197e+00 2.112994e+00 5.000000e+00
      vertex 4.698537e+00 1.709797e+00 5.000000e+00
      vertex 5.000000e+00 -6.123234e-16 5.000000e+00
    endloop
  endfacet
  facet normal 0.000000e+00 0.000000e+00 1.000000e+00
    outer loop
      vertex 7.500000e+00 0.000000e+00 5.000000e+00
      vertex 5.000000e+00 -6.123234e-16 5.000000e+00
      vertex 4.698537e+00 -1.709797e+00 5.000000e+00
    endloop
  endfacet
  facet normal 0.000000e+00 0.000000e+00 1.000000e+00
    outer loop
      vertex 7.500000e+00 0.000000e+00 5.000000e+00
      vertex 7.196197e+00 2.112994e+00 5.000000e+00
      vertex 5.000000e+00 -6.123234e-16 5.000000e+00
    endloop
  endfacet
  facet normal 0.000000e+00 0.000000e+00 1.000000e+00
    outer loop
      vertex 7.196197e+00 2.112994e+00 5.000000e+00
      vertex 3.830226e+00 3.213825e+00 5.000000e+00
      vertex 4.698537e+00 1.709797e+00 5.000000e+00
    endloop
  endfacet
  facet normal 0.000000e+00 0.000000e+00 1.000000e+00
    outer loop
      vertex 6.309401e+00 4.054806e+00 5.000000e+00
      vertex 2.499764e+00 4.330198e+00 5.000000e+00
      vertex 3.830226e+00 3.213825e+00 5.000000e+00
    endloop
  endfacet
  facet normal 0.000000e+00 0.000000e+00 1.000000e+00
    outer loop
      vertex 7.196197e+00 2.112994e+00 5.000000e+00
      vertex 6.309401e+00 4.054806e+00 5.000000e+00
      vertex 3.830226e+00 3.213825e+00 5.000000e+00
    endloop
  endfacet
  facet normal 0.000000e+00 0.000000e+00 1.000000e+00
    outer loop
      vertex 4.911456e+00 5.668122e+00 5.000000e+00
      vertex 8.679946e-01 4.924071e+00 5.000000e+00
      vertex 2.499764e+00 4.330198e+00 5.000000e+00
    endloop
  endfacet
  facet normal 0.000000e+00 0.000000e+00 1.000000e+00
    outer loop
      vertex 6.309401e+00 4.054806e+00 5.000000e+00
      vertex 4.911456e+00 5.668122e+00 5.000000e+00
      vertex 2.499764e+00 4.330198e+00 5.000000e+00
    endloop
  endfacet
  facet normal 0.000000e+00 0.000000e+00 1.000000e+00
    outer loop
      vertex 4.911456e+00 5.668122e+00 5.000000e+00
      vertex -8.679946e-01 4.924071e+00 5.000000e+00
      vertex 8.679946e-01 4.924071e+00 5.000000e+00
    endloop
  endfacet
  facet normal 0.000000e+00 0.000000e+00 1.000000e+00
    outer loop
      vertex -6.309401e+00 4.054806e+00 5.000000e+00
      vertex -2.499764e+00 4.330198e+00 5.000000e+00
      vertex -8.679946e-01 4.924071e+00 5.000000e+00
    endloop
  endfacet
  facet normal 0.000000e+00 0.000000e+00 1.000000e+00
    outer loop
      vertex -4.911456e+00 5.668122e+00 5.000000e+00
      vertex -6.309401e+00 4.054806e+00 5.000000e+00
      vertex -8.679946e-01 4.924071e+00 5.000000e+00
    endloop
  endfacet
  facet normal 0.000000e+00 0.000000e+00 1.000000e+00
    outer loop
      vertex 4.911456e+00 5.668122e+00 5.000000e+00
      vertex -4.911456e+00 5.668122e+00 5.000000e+00
      vertex -8.679946e-01 4.924071e+00 5.000000e+00
    endloop
  endfacet
  facet normal 0.000000e+00 0.000000e+00 1.000000e+00
    outer loop
      vertex -6.309401e+00 4.054806e+00 5.000000e+00
      vertex -3.830226e+00 3.213825e+00 5.000000e+00
      vertex -2.499764e+00 4.330198e+00 5.000000e+00
    endloop
  endfacet
  facet normal 0.000000e+00 0.000000e+00 1.000000e+00
    outer loop
      vertex -7.196197e+00 2.112994e+00 5.000000e+00
      vertex -4.698537e+00 1.709797e+00 5.000000e+00
      vertex -3.830226e+00 3.213825e+00 5.000000e+00
    endloop
  endfacet
  facet normal 0.000000e+00 0.000000e+00 1.000000e+00
    outer loop
      vertex -6.309401e+00 4.054806e+00 5.000000e+00
      vertex -7.196197e+00 2.112994e+00 5.000000e+00
      vertex -3.830226e+00 3.213825e+00 5.000000e+00
    endloop
  endfacet
  facet normal 0.000000e+00 0.000000e+00 1.000000e+00
    outer loop
      vertex -7.500000e+00 9.184851e-16 5.000000e+00
      vertex -5.000000e+00 6.123234e-16 5.000000e+00
      vertex -4.698537e+00 1.709797e+00 5.000000e+00
    endloop
  endfacet
  facet normal 0.000000e+00 0.000000e+00 1.000000e+00
    outer loop
      vertex -7.196197e+00 2.112994e+00 5.000000e+00
      vertex -7.500000e+00 9.184851e-16 5.000000e+00
      vertex -4.698537e+00 1.709797e+00 5.000000e+00
    endloop
  endfacet
  facet normal 0.000000e+00 0.000000e+00 1.000000e+00
    outer loop
      vertex -7.500000e+00 -1.000000e+01 5.000000e+00
      vertex -4.698537e+00 -1.709797e+00 5.000000e+00
      vertex -5.000000e+00 6.123234e-16 5.000000e+00
    endloop
  endfacet
  facet normal 0.000000e+00 0.000000e+00 1.000000e+00
    outer loop
      vertex -7.500000e+00 -1.000000e+01 5.000000e+00
      vertex -5.000000e+00 6.123234e-16 5.000000e+00
      vertex -7.500000e+00 9.184851e-16 5.000000e+00
    endloop
  endfacet
  facet normal 0.000000e+00 0.000000e+00 1.000000e+00
    outer loop
      vertex -7.500000e+00 -1.000000e+01 5.000000e+00
      vertex -3.830226e+00 -3.213825e+00 5.000000e+00
      vertex -4.698537e+00 -1.709797e+00 5.000000e+00
    endloop
  endfacet
  facet normal 0.000000e+00 0.000000e+00 1.000000e+00
    outer loop
      vertex -7.500000e+00 -1.000000e+01 5.000000e+00
      vertex -2.499764e+00 -4.330198e+00 5.000000e+00
      vertex -3.830226e+00 -3.213825e+00 5.000000e+00
    endloop
  endfacet
  facet normal 0.000000e+00 0.000000e+00 1.000000e+00
    outer loop
      vertex -7.500000e+00 -1.000000e+01 5.000000e+00
      vertex -8.679946e-01 -4.924071e+00 5.000000e+00
      vertex -2.499764e+00 -4.330198e+00 5.000000e+00
    endloop
  endfacet
  facet normal 0.000000e+00 0.000000e+00 1.000000e+00
    outer loop
      vertex -7.500000e+00 -1.000000e+01 5.000000e+00
      vertex 8.679946e-01 -4.924071e+00 5.000000e+00
      vertex -8.679946e-01 -4.924071e+00 5.000000e+00
    endloop
  endfacet
  facet normal 0.000000e+00 0.000000e+00 1.000000e+00
    outer loop
      vertex -7.500000e+00 -1.000000e+01 5.000000e+00
      vertex 2.499764e+00 -4.330198e+00 5.000000e+00
      vertex 8.679946e-01 -4.924071e+00 5.000000e+00
    endloop
  endfacet
  facet normal 0.000000e+00 0.000000e+00 1.000000e+00
    outer loop
      vertex 7.500000e+00 -1.000000e+01 5.000000e+00
      vertex 3.830226e+00 -3.213825e+00 5.000000e+00
      vertex 2.499764e+00 -4.330198e+00 5.000000e+00
    endloop
  endfacet
  facet normal 0.000000e+00 0.000000e+00 1.000000e+00
    outer loop
      vertex -7.500000e+00 -1.000000e+01 5.000000e+00
      vertex 7.500000e+00 -1.000000e+01 5.000000e+00
      vertex 2.499764e+00 -4.330198e+00 5.000000e+00
    endloop
  endfacet
  facet normal 0.000000e+00 0.000000e+00 1.000000e+00
    outer loop
      vertex 7.500000e+00 0.000000e+00 5.000000e+00
      vertex 4.698537e+00 -1.709797e+00 5.000000e+00
      vertex 3.830226e+00 -3.213825e+00 5.000000e+00
    endloop
  endfacet
  facet normal 0.000000e+00 0.000000e+00 1.000000e+00
    outer loop
      vertex 7.500000e+00 -1.000000e+01 5.000000e+00
      vertex 7.500000e+00 0.000000e+00 5.000000e+00
      vertex 3.830226e+00 -3.213825e+00 5.000000e+00
    endloop
  endfacet
  facet normal 0.000000e+00 0.000000e+00 1.000000e+00
    outer loop
      vertex 3.115613e+00 6.822240e+00 5.000000e+00
      vertex -3.115613e+00 6.822240e+00 5.000000e+00
      vertex -4.911456e+00 5.668122e+00 5.000000e+00
    endloop
  endfacet
  facet normal 0.000000e+00 0.000000e+00 1.000000e+00
    outer loop
      vertex 4.911456e+00 5.668122e+00 5.000000e+00
      vertex 3.115613e+00 6.822240e+00 5.000000e+00
      vertex -4.911456e+00 5.668122e+00 5.000000e+00
    endloop
  endfacet
  facet normal 0.000000e+00 0.000000e+00 1.000000e+00
    outer loop
      vertex 1.067361e+00 7.423661e+00 5.000000e+00
      vertex -1.067361e+00 7.423661e+00 5.000000e+00
      vertex -3.115613e+00 6.822240e+00 5.000000e+00
    endloop
  endfacet
  facet normal 0.000000e+00 0.000000e+00 1.000000e+00
    outer loop
      vertex 3.115613e+00 6.822240e+00 5.000000e+00
      vertex 1.067361e+00 7.423661e+00 5.000000e+00
      vertex -3.115613e+00 6.822240e+00 5.000000e+00
    endloop
  endfacet
  facet normal 0.000000e+00 -1.000000e+00 0.000000e+00
    outer loop
      vertex 5.624819e+00 -1.000000e+01 1.082569e+00
      vertex 7.500000e+00 -1.000000e+01 5.000000e+00
      vertex -7.500000e+00 -1.000000e+01 5.000000e+00
    endloop
  endfacet
  facet normal 0.000000e+00 -1.000000e+00 0.000000e+00
    outer loop
      vertex 6.082569e+00 -1.000000e+01 6.248191e-01
      vertex 6.250000e+00 -1.000000e+01 -8.881784e-16
      vertex 7.500000e+00 -1.000000e+01 5.000000e+00
    endloop
  endfacet
  facet normal 0.000000e+00 -1.000000e+00 0.000000e+00
    outer loop
      vertex 5.624819e+00 -1.000000e+01 1.082569e+00
      vertex 6.082569e+00 -1.000000e+01 6.248191e-01
      vertex 7.500000e+00 -1.000000e+01 5.000000e+00
    endloop
  endfacet
  facet normal 0.000000e+00 -1.000000e+00 0.000000e+00
    outer loop
      vertex 5.000000e+00 -1.000000e+01 1.250000e+00
      vertex 5.624819e+00 -1.000000e+01 1.082569e+00
      vertex -7.500000e+00 -1.000000e+01 5.000000e+00
    endloop
  endfacet
  facet normal 0.000000e+00 -1.000000e+00 0.000000e+00
    outer loop
      vertex 4.375181e+00 -1.000000e+01 1.082569e+00
      vertex 5.000000e+00 -1.000000e+01 1.250000e+00
      vertex -7.500000e+00 -1.000000e+01 5.000000e+00
    endloop
  endfacet
  facet normal 0.000000e+00 -1.000000e+00 0.000000e+00
    outer loop
      vertex 3.917431e+00 -1.000000e+01 6.248191e-01
      vertex 4.375181e+00 -1.000000e+01 1.082569e+00
      vertex -7.500000e+00 -1.000000e+01 5.000000e+00
    endloop
  endfacet
  facet normal 0.000000e+00 -1.000000e+00 0.000000e+00
    outer loop
      vertex 3.750000e+00 -1.000000e+01 0.000000e+00
      vertex 3.917431e+00 -1.000000e+01 6.248191e-01
      vertex -7.500000e+00 -1.000000e+01 5.000000e+00
    endloop
  endfacet
  facet normal 0.000000e+00 -1.000000e+00 0.000000e+00
    outer loop
      vertex -3.917431e+00 -1.000000e+01 6.248191e-01
      vertex 3.750000e+00 -1.000000e+01 0.000000e+00
      vertex -7.500000e+00 -1.000000e+01 5.000000e+00
    endloop
  endfacet
  facet normal 0.000000e+00 -1.000000e+00 0.000000e+00
    outer loop
      vertex -4.375181e+00 -1.000000e+01 1.082569e+00
      vertex -3.917431e+00 -1.000000e+01 6.248191e-01
      vertex -7.500000e+00 -1.000000e+01 5.000000e+00
    endloop
  endfacet
  facet normal 0.000000e+00 -1.000000e+00 0.000000e+00
    outer loop
      vertex -5.000000e+00 -1.000000e+01 1.250000e+00
      vertex -4.375181e+00 -1.000000e+01 1.082569e+00
      vertex -7.500000e+00 -1.000000e+01 5.000000e+00
    endloop
  endfacet
  facet normal 0.000000e+00 -1.000000e+00 0.000000e+00
    outer loop
      vertex -5.624819e+00 -1.000000e+01 1.082569e+00
      vertex -5.000000e+00 -1.000000e+01 1.250000e+00
      vertex -7.500000e+00 -1.000000e+01 5.000000e+00
    endloop
  endfacet
  facet normal 0.000000e+00 -1.000000e+00 0.000000e+00
    outer loop
      vertex -6.082569e+00 -1.000000e+01 6.248191e-01
      vertex -5.624819e+00 -1.000000e+01 1.082569e+00
      vertex -7.500000e+00 -1.000000e+01 5.000000e+00
    endloop
  endfacet
  facet normal 0.000000e+00 -1.000000e+00 0.000000e+00
    outer loop
      vertex -6.250000e+00 -1.000000e+01 0.000000e+00
      vertex -6.082569e+00 -1.000000e+01 6.248191e-01
      vertex -7.500000e+00 -1.000000e+01 5.000000e+00
    endloop
  endfacet
  facet normal -2.588357e-01 4.597845e-17 9.659214e-01
    outer loop
      vertex 5.000000e+00 -5.000000e+00 -1.250000e+00
      vertex 5.000000e+00 -1.000000e+01 -1.250000e+00
      vertex 5.624819e+00 -1.000000e+01 -1.082569e+00
    endloop
  endfacet
  facet normal 2.588357e-01 1.042202e-05 9.659214e-01
    outer loop
      vertex 4.375252e+00 -5.000000e+00 -1.082642e+00
      vertex 4.375181e+00 -1.000000e+01 -1.082569e+00
      vertex 5.000000e+00 -1.000000e+01 -1.250000e+00
    endloop
  endfacet
  facet normal 2.587578e-01 -4.720510e-17 9.659422e-01
    outer loop
      vertex 4.375252e+00 -5.000000e+00 -1.082642e+00
      vertex 5.000000e+00 -1.000000e+01 -1.250000e+00
      vertex 5.000000e+00 -5.000000e+00 -1.250000e+00
    endloop
  endfacet
  facet normal -7.071068e-01 3.117533e-07 7.071068e-01
    outer loop
      vertex 5.624748e+00 -5.000000e+00 -1.082642e+00
      vertex 5.624819e+00 -1.000000e+01 -1.082569e+00
      vertex 6.082569e+00 -1.000000e+01 -6.248191e-01
    endloop
  endfacet
  facet normal -2.587578e-01 1.042342e-05 9.659422e-01
    outer loop
      vertex 5.624748e+00 -5.000000e+00 -1.082642e+00
      vertex 5.000000e+00 -5.000000e+00 -1.250000e+00
      vertex 5.624819e+00 -1.000000e+01 -1.082569e+00
    endloop
  endfacet
  facet normal -9.659214e-01 -2.427533e-05 2.588357e-01
    outer loop
      vertex 6.082354e+00 -5.000000e+00 -6.251503e-01
      vertex 6.082569e+00 -1.000000e+01 -6.248191e-01
      vertex 6.250000e+00 -1.000000e+01 -8.881784e-16
    endloop
  endfacet
  facet normal -7.070183e-01 1.651756e-05 7.071953e-01
    outer loop
      vertex 5.624748e+00 -5.000000e+00 -1.082642e+00
      vertex 6.082569e+00 -1.000000e+01 -6.248191e-01
      vertex 6.082354e+00 -5.000000e+00 -6.251503e-01
    endloop
  endfacet
  facet normal -9.659214e-01 -1.920903e-05 -2.588357e-01
    outer loop
      vertex 6.249901e+00 -5.000000e+00 0.000000e+00
      vertex 6.250000e+00 -1.000000e+01 -8.881784e-16
      vertex 6.082569e+00 -1.000000e+01 6.248191e-01
    endloop
  endfacet
  facet normal -9.659112e-01 -1.920883e-05 2.588735e-01
    outer loop
      vertex 6.082354e+00 -5.000000e+00 -6.251503e-01
      vertex 6.250000e+00 -1.000000e+01 -8.881784e-16
      vertex 6.249901e+00 -5.000000e+00 0.000000e+00
    endloop
  endfacet
  facet normal -7.071068e-01 1.650790e-05 -7.071068e-01
    outer loop
      vertex 6.082354e+00 -5.000000e+00 6.251503e-01
      vertex 6.082569e+00 -1.000000e+01 6.248191e-01
      vertex 5.624819e+00 -1.000000e+01 1.082569e+00
    endloop
  endfacet
  facet normal -9.659112e-01 -2.427239e-05 -2.588735e-01
    outer loop
      vertex 6.249901e+00 -5.000000e+00 0.000000e+00
      vertex 6.082569e+00 -1.000000e+01 6.248191e-01
      vertex 6.082354e+00 -5.000000e+00 6.251503e-01
    endloop
  endfacet
  facet normal -2.588357e-01 1.042202e-05 -9.659214e-01
    outer loop
      vertex 5.624748e+00 -5.000000e+00 1.082642e+00
      vertex 5.624819e+00 -1.000000e+01 1.082569e+00
      vertex 5.000000e+00 -1.000000e+01 1.250000e+00
    endloop
  endfacet
  facet normal -7.070183e-01 3.142945e-07 -7.071953e-01
    outer loop
      vertex 6.082354e+00 -5.000000e+00 6.251503e-01
      vertex 5.624819e+00 -1.000000e+01 1.082569e+00
      vertex 5.624748e+00 -5.000000e+00 1.082642e+00
    endloop
  endfacet
  facet normal 2.588357e-01 -4.597845e-17 -9.659214e-01
    outer loop
      vertex 5.000000e+00 -5.000000e+00 1.250000e+00
      vertex 5.000000e+00 -1.000000e+01 1.250000e+00
      vertex 4.375181e+00 -1.000000e+01 1.082569e+00
    endloop
  endfacet
  facet normal -2.587578e-01 4.291372e-17 -9.659422e-01
    outer loop
      vertex 5.624748e+00 -5.000000e+00 1.082642e+00
      vertex 5.000000e+00 -1.000000e+01 1.250000e+00
      vertex 5.000000e+00 -5.000000e+00 1.250000e+00
    endloop
  endfacet
  facet normal 7.071068e-01 3.117533e-07 -7.071068e-01
    outer loop
      vertex 4.375252e+00 -5.000000e+00 1.082642e+00
      vertex 4.375181e+00 -1.000000e+01 1.082569e+00
      vertex 3.917431e+00 -1.000000e+01 6.248191e-01
    endloop
  endfacet
  facet normal 2.587578e-01 1.042342e-05 -9.659422e-01
    outer loop
      vertex 5.000000e+00 -5.000000e+00 1.250000e+00
      vertex 4.375181e+00 -1.000000e+01 1.082569e+00
      vertex 4.375252e+00 -5.000000e+00 1.082642e+00
    endloop
  endfacet
  facet normal 9.659214e-01 -2.427533e-05 -2.588357e-01
    outer loop
      vertex 3.917646e+00 -5.000000e+00 6.251503e-01
      vertex 3.917431e+00 -1.000000e+01 6.248191e-01
      vertex 3.750000e+00 -1.000000e+01 0.000000e+00
    endloop
  endfacet
  facet normal 7.070183e-01 1.651756e-05 -7.071953e-01
    outer loop
      vertex 4.375252e+00 -5.000000e+00 1.082642e+00
      vertex 3.917431e+00 -1.000000e+01 6.248191e-01
      vertex 3.917646e+00 -5.000000e+00 6.251503e-01
    endloop
  endfacet
  facet normal 0.000000e+00 -1.000000e+00 0.000000e+00
    outer loop
      vertex -3.750000e+00 -1.000000e+01 0.000000e+00
      vertex 3.917431e+00 -1.000000e+01 -6.248191e-01
      vertex 3.750000e+00 -1.000000e+01 0.000000e+00
    endloop
  endfacet
  facet normal 9.659214e-01 -1.920903e-05 2.588357e-01
    outer loop
      vertex 3.750099e+00 -5.000000e+00 0.000000e+00
      vertex 3.750000e+00 -1.000000e+01 0.000000e+00
      vertex 3.917431e+00 -1.000000e+01 -6.248191e-01
    endloop
  endfacet
  facet normal 0.000000e+00 -1.000000e+00 0.000000e+00
    outer loop
      vertex -3.917431e+00 -1.000000e+01 6.248191e-01
      vertex -3.750000e+00 -1.000000e+01 0.000000e+00
      vertex 3.750000e+00 -1.000000e+01 0.000000e+00
    endloop
  endfacet
  facet normal 9.659112e-01 -1.920883e-05 -2.588735e-01
    outer loop
      vertex 3.917646e+00 -5.000000e+00 6.251503e-01
      vertex 3.750000e+00 -1.000000e+01 0.000000e+00
      vertex 3.750099e+00 -5.000000e+00 0.000000e+00
    endloop
  endfacet
  facet normal 7.071068e-01 1.650790e-05 7.071068e-01
    outer loop
      vertex 3.917646e+00 -5.000000e+00 -6.251503e-01
      vertex 3.917431e+00 -1.000000e+01 -6.248191e-01
      vertex 4.375181e+00 -1.000000e+01 -1.082569e+00
    endloop
  endfacet
  facet normal 9.659112e-01 -2.427239e-05 2.588735e-01
    outer loop
      vertex 3.750099e+00 -5.000000e+00 0.000000e+00
      vertex 3.917431e+00 -1.000000e+01 -6.248191e-01
      vertex 3.917646e+00 -5.000000e+00 -6.251503e-01
    endloop
  endfacet
  facet normal 7.070183e-01 3.142945e-07 7.071953e-01
    outer loop
      vertex 3.917646e+00 -5.000000e+00 -6.251503e-01
      vertex 4.375181e+00 -1.000000e+01 -1.082569e+00
      vertex 4.375252e+00 -5.000000e+00 -1.082642e+00
    endloop
  endfacet
  facet normal -2.588357e-01 0.000000e+00 9.659214e-01
    outer loop
      vertex -5.000000e+00 -5.000000e+00 -1.250000e+00
      vertex -5.000000e+00 -1.000000e+01 -1.250000e+00
      vertex -4.375181e+00 -1.000000e+01 -1.082569e+00
    endloop
  endfacet
  facet normal 2.588357e-01 1.042202e-05 9.659214e-01
    outer loop
      vertex -5.624748e+00 -5.000000e+00 -1.082642e+00
      vertex -5.624819e+00 -1.000000e+01 -1.082569e+00
      vertex -5.000000e+00 -1.000000e+01 -1.250000e+00
    endloop
  endfacet
  facet normal 2.587578e-01 0.000000e+00 9.659422e-01
    outer loop
      vertex -5.624748e+00 -5.000000e+00 -1.082642e+00
      vertex -5.000000e+00 -1.000000e+01 -1.250000e+00
      vertex -5.000000e+00 -5.000000e+00 -1.250000e+00
    endloop
  endfacet
  facet normal -7.071068e-01 3.117533e-07 7.071068e-01
    outer loop
      vertex -4.375252e+00 -5.000000e+00 -1.082642e+00
      vertex -4.375181e+00 -1.000000e+01 -1.082569e+00
      vertex -3.917431e+00 -1.000000e+01 -6.248191e-01
    endloop
  endfacet
  facet normal -2.587578e-01 1.042342e-05 9.659422e-01
    outer loop
      vertex -4.375252e+00 -5.000000e+00 -1.082642e+00
      vertex -5.000000e+00 -5.000000e+00 -1.250000e+00
      vertex -4.375181e+00 -1.000000e+01 -1.082569e+00
    endloop
  endfacet
  facet normal -9.659214e-01 -2.427533e-05 2.588357e-01
    outer loop
      vertex -3.917646e+00 -5.000000e+00 -6.251503e-01
      vertex -3.917431e+00 -1.000000e+01 -6.248191e-01
      vertex -3.750000e+00 -1.000000e+01 0.000000e+00
    endloop
  endfacet
  facet normal -7.070183e-01 1.651756e-05 7.071953e-01
    outer loop
      vertex -4.375252e+00 -5.000000e+00 -1.082642e+00
      vertex -3.917431e+00 -1.000000e+01 -6.248191e-01
      vertex -3.917646e+00 -5.000000e+00 -6.251503e-01
    endloop
  endfacet
  facet normal -9.659214e-01 -1.920903e-05 -2.588357e-01
    outer loop
      vertex -3.750099e+00 -5.000000e+00 0.000000e+00
      vertex -3.750000e+00 -1.000000e+01 0.000000e+00
      vertex -3.917431e+00 -1.000000e+01 6.248191e-01
    endloop
  endfacet
  facet normal -9.659112e-01 -1.920883e-05 2.588735e-01
    outer loop
      vertex -3.917646e+00 -5.000000e+00 -6.251503e-01
      vertex -3.750000e+00 -1.000000e+01 0.000000e+00
      vertex -3.750099e+00 -5.000000e+00 0.000000e+00
    endloop
  endfacet
  facet normal -7.071068e-01 1.650790e-05 -7.071068e-01
    outer loop
      vertex -3.917646e+00 -5.000000e+00 6.251503e-01
      vertex -3.917431e+00 -1.000000e+01 6.248191e-01
      vertex -4.375181e+00 -1.000000e+01 1.082569e+00
    endloop
  endfacet
  facet normal -9.659112e-01 -2.427239e-05 -2.588735e-01
    outer loop
      vertex -3.750099e+00 -5.000000e+00 0.000000e+00
      vertex -3.917431e+00 -1.000000e+01 6.248191e-01
      vertex -3.917646e+00 -5.000000e+00 6.251503e-01
    endloop
  endfacet
  facet normal -2.588357e-01 1.042202e-05 -9.659214e-01
    outer loop
      vertex -4.375252e+00 -5.000000e+00 1.082642e+00
      vertex -4.375181e+00 -1.000000e+01 1.082569e+00
      vertex -5.000000e+00 -1.000000e+01 1.250000e+00
    endloop
  endfacet
  facet normal -7.070183e-01 3.142945e-07 -7.071953e-01
    outer loop
      vertex -3.917646e+00 -5.000000e+00 6.251503e-01
      vertex -4.375181e+00 -1.000000e+01 1.082569e+00
      vertex -4.375252e+00 -5.000000e+00 1.082642e+00
    endloop
  endfacet
  facet normal 2.588357e-01 0.000000e+00 -9.659214e-01
    outer loop
      vertex -5.000000e+00 -5.000000e+00 1.250000e+00
      vertex -5.000000e+00 -1.000000e+01 1.250000e+00
      vertex -5.624819e+00 -1.000000e+01 1.082569e+00
    endloop
  endfacet
  facet normal -2.587578e-01 0.000000e+00 -9.659422e-01
    outer loop
      vertex -4.375252e+00 -5.000000e+00 1.082642e+00
      vertex -5.000000e+00 -1.000000e+01 1.250000e+00
      vertex -5.000000e+00 -5.000000e+00 1.250000e+00
    endloop
  endfacet
  facet normal 7.071068e-01 3.117533e-07 -7.071068e-01
    outer loop
      vertex -5.624748e+00 -5.000000e+00 1.082642e+00
      vertex -5.624819e+00 -1.000000e+01 1.082569e+00
      vertex -6.082569e+00 -1.000000e+01 6.248191e-01
    endloop
  endfacet
  facet normal 2.587578e-01 1.042342e-05 -9.659422e-01
    outer loop
      vertex -5.000000e+00 -5.000000e+00 1.250000e+00
      vertex -5.624819e+00 -1.000000e+01 1.082569e+00
      vertex -5.624748e+00 -5.000000e+00 1.082642e+00
    endloop
  endfacet
  facet normal 9.659214e-01 -2.427533e-05 -2.588357e-01
    outer loop
      vertex -6.082354e+00 -5.000000e+00 6.251503e-01
      vertex -6.082569e+00 -1.000000e+01 6.248191e-01
      vertex -6.250000e+00 -1.000000e+01 0.000000e+00
    endloop
  endfacet
  facet normal 7.070183e-01 1.651756e-05 -7.071953e-01
    outer loop
      vertex -5.624748e+00 -5.000000e+00 1.082642e+00
      vertex -6.082569e+00 -1.000000e+01 6.248191e-01
      vertex -6.082354e+00 -5.000000e+00 6.251503e-01
    endloop
  endfacet
  facet normal 9.659214e-01 -1.920903e-05 2.588357e-01
    outer loop
      vertex -6.249901e+00 -5.000000e+00 0.000000e+00
      vertex -6.250000e+00 -1.000000e+01 0.000000e+00
      vertex -6.082569e+00 -1.000000e+01 -6.248191e-01
    endloop
  endfacet
  facet normal 9.659112e-01 -1.920883e-05 -2.588735e-01
    outer loop
      vertex -6.082354e+00 -5.000000e+00 6.251503e-01
      vertex -6.250000e+00 -1.000000e+01 0.000000e+00
      vertex -6.249901e+00 -5.000000e+00 0.000000e+00
    endloop
  endfacet
  facet normal 7.071068e-01 1.650790e-05 7.071068e-01
    outer loop
      vertex -6.082354e+00 -5.000000e+00 -6.251503e-01
      vertex -6.082569e+00 -1.000000e+01 -6.248191e-01
      vertex -5.624819e+00 -1.000000e+01 -1.082569e+00
    endloop
  endfacet
  facet normal 9.659112e-01 -2.427239e-05 2.588735e-01
    outer loop
      vertex -6.249901e+00 -5.000000e+00 0.000000e+00
      vertex -6.082569e+00 -1.000000e+01 -6.248191e-01
      vertex -6.082354e+00 -5.000000e+00 -6.251503e-01
    endloop
  endfacet
  facet normal 7.070183e-01 3.142945e-07 7.071953e-01
    outer loop
      vertex -6.082354e+00 -5.000000e+00 -6.251503e-01
      vertex -5.624819e+00 -1.000000e+01 -1.082569e+00
      vertex -5.624748e+00 -5.000000e+00 -1.082642e+00
    endloop
  endfacet
  facet normal 0.000000e+00 -1.000000e+00 0.000000e+00
    outer loop
      vertex 4.375252e+00 -5.000000e+00 1.082642e+00
      vertex 4.375252e+00 -5.000000e+00 -1.082642e+00
      vertex 5.000000e+00 -5.000000e+00 -1.250000e+00
    endloop
  endfacet
  facet normal 0.000000e+00 -1.000000e+00 0.000000e+00
    outer loop
      vertex 5.000000e+00 -5.000000e+00 1.250000e+00
      vertex 4.375252e+00 -5.000000e+00 1.082642e+00
      vertex 5.000000e+00 -5.000000e+00 -1.250000e+00
    endloop
  endfacet
  facet normal 0.000000e+00 -1.000000e+00 0.000000e+00
    outer loop
      vertex 5.624748e+00 -5.000000e+00 -1.082642e+00
      vertex 5.000000e+00 -5.000000e+00 1.250000e+00
      vertex 5.000000e+00 -5.000000e+00 -1.250000e+00
    endloop
  endfacet
  facet normal 0.000000e+00 -1.000000e+00 0.000000e+00
    outer loop
      vertex 3.917646e+00 -5.000000e+00 6.251503e-01
      vertex 3.917646e+00 -5.000000e+00 -6.251503e-01
      vertex 4.375252e+00 -5.000000e+00 -1.082642e+00
    endloop
  endfacet
  facet normal 0.000000e+00 -1.000000e+00 0.000000e+00
    outer loop
      vertex 4.375252e+00 -5.000000e+00 1.082642e+00
      vertex 3.917646e+00 -5.000000e+00 6.251503e-01
      vertex 4.375252e+00 -5.000000e+00 -1.082642e+00
    endloop
  endfacet
  facet normal 0.000000e+00 -1.000000e+00 0.000000e+00
    outer loop
      vertex 3.917646e+00 -5.000000e+00 6.251503e-01
      vertex 3.750099e+00 -5.000000e+00 0.000000e+00
      vertex 3.917646e+00 -5.000000e+00 -6.251503e-01
    endloop
  endfacet
  facet normal 0.000000e+00 -1.000000e+00 0.000000e+00
    outer loop
      vertex 5.624748e+00 -5.000000e+00 -1.082642e+00
      vertex 5.624748e+00 -5.000000e+00 1.082642e+00
      vertex 5.000000e+00 -5.000000e+00 1.250000e+00
    endloop
  endfacet
  facet normal 0.000000e+00 -1.000000e+00 0.000000e+00
    outer loop
      vertex 6.082354e+00 -5.000000e+00 -6.251503e-01
      vertex 6.082354e+00 -5.000000e+00 6.251503e-01
      vertex 5.624748e+00 -5.000000e+00 1.082642e+00
    endloop
  endfacet
  facet normal 0.000000e+00 -1.000000e+00 0.000000e+00
    outer loop
      vertex 5.624748e+00 -5.000000e+00 -1.082642e+00
      vertex 6.082354e+00 -5.000000e+00 -6.251503e-01
      vertex 5.624748e+00 -5.000000e+00 1.082642e+00
    endloop
  endfacet
  facet normal 0.000000e+00 -1.000000e+00 0.000000e+00
    outer loop
      vertex 6.082354e+00 -5.000000e+00 -6.251503e-01
      vertex 6.249901e+00 -5.000000e+00 0.000000e+00
      vertex 6.082354e+00 -5.000000e+00 6.251503e-01
    endloop
  endfacet
  facet normal 0.000000e+00 -1.000000e+00 0.000000e+00
    outer loop
      vertex -5.624748e+00 -5.000000e+00 1.082642e+00
      vertex -5.624748e+00 -5.000000e+00 -1.082642e+00
      vertex -5.000000e+00 -5.000000e+00 -1.250000e+00
    endloop
  endfacet
  facet normal 0.000000e+00 -1.000000e+00 0.000000e+00
    outer loop
      vertex -5.000000e+00 -5.000000e+00 1.250000e+00
      vertex -5.624748e+00 -5.000000e+00 1.082642e+00
      vertex -5.000000e+00 -5.000000e+00 -1.250000e+00
    endloop
  endfacet
  facet normal 0.000000e+00 -1.000000e+00 0.000000e+00
    outer loop
      vertex -4.375252e+00 -5.000000e+00 -1.082642e+00
      vertex -5.000000e+00 -5.000000e+00 1.250000e+00
      vertex -5.000000e+00 -5.000000e+00 -1.250000e+00
    endloop
  endfacet
  facet normal 0.000000e+00 -1.000000e+00 0.000000e+00
    outer loop
      vertex -6.082354e+00 -5.000000e+00 6.251503e-01
      vertex -6.082354e+00 -5.000000e+00 -6.251503e-01
      vertex -5.624748e+00 -5.000000e+00 -1.082642e+00
    endloop
  endfacet
  facet normal 0.000000e+00 -1.000000e+00 0.000000e+00
    outer loop
      vertex -5.624748e+00 -5.000000e+00 1.082642e+00
      vertex -6.082354e+00 -5.000000e+00 6.251503e-01
      vertex -5.624748e+00 -5.000000e+00 -1.082642e+00
    endloop
  endfacet
  facet normal 0.000000e+00 -1.000000e+00 0.000000e+00
    outer loop
      vertex -6.082354e+00 -5.000000e+00 6.251503e-01
      vertex -6.249901e+00 -5.000000e+00 0.000000e+00
      vertex -6.082354e+00 -5.000000e+00 -6.251503e-01
    endloop
  endfacet
  facet normal 0.000000e+00 -1.000000e+00 0.000000e+00
    outer loop
      vertex -4.375252e+00 -5.000000e+00 -1.082642e+00
      vertex -4.375252e+00 -5.000000e+00 1.082642e+00
      vertex -5.000000e+00 -5.000000e+00 1.250000e+00
    endloop
  endfacet
  facet normal 0.000000e+00 -1.000000e+00 0.000000e+00
    outer loop
      vertex -3.917646e+00 -5.000000e+00 -6.251503e-01
      vertex -3.917646e+00 -5.000000e+00 6.251503e-01
      vertex -4.375252e+00 -5.000000e+00 1.082642e+00
    endloop
  endfacet
  facet normal 0.000000e+00 -1.000000e+00 0.000000e+00
    outer loop
      vertex -4.375252e+00 -5.000000e+00 -1.082642e+00
      vertex -3.917646e+00 -5.000000e+00 -6.251503e-01
      vertex -4.375252e+00 -5.000000e+00 1.082642e+00
    endloop
  endfacet
  facet normal 0.000000e+00 -1.000000e+00 0.000000e+00
    outer loop
      vertex -3.917646e+00 -5.000000e+00 -6.251503e-01
      vertex -3.750099e+00 -5.000000e+00 0.000000e+00
      vertex -3.917646e+00 -5.000000e+00 6.251503e-01
    endloop
  endfacet
endsolid ADJUSTER_BASE
